<svg version="1.1" id="Layer_1" xmlns="http://www.w3.org/2000/svg" xmlns:xlink="http://www.w3.org/1999/xlink" x="0px" y="0px"
	 width="100%" viewBox="0 0 512 512" enable-background="new 0 0 512 512" xml:space="preserve">
<path fill="#000000" opacity="1.000000" stroke="none" 
	d="
M304.000000,513.000000 
	C202.691269,513.000000 101.882530,513.000000 1.036899,513.000000 
	C1.036899,342.399567 1.036899,171.799149 1.036899,1.099354 
	C171.558746,1.099354 342.117554,1.099354 512.838196,1.099354 
	C512.838196,171.666550 512.838196,342.333252 512.838196,513.000000 
	C443.465790,513.000000 373.982880,513.000000 304.000000,513.000000 
M369.460449,469.022308 
	C372.223206,469.368835 375.013855,469.568451 377.744019,470.086700 
	C391.123962,472.626465 403.872803,469.790405 416.259888,465.178650 
	C424.479614,462.118408 425.618347,455.154663 419.417847,448.923645 
	C409.307983,438.763977 399.076691,428.723511 389.076050,418.457947 
	C386.713013,416.032349 384.467499,413.156433 383.197968,410.064697 
	C379.472504,400.992065 383.029175,391.300995 391.700806,385.721527 
	C400.401703,380.123199 409.375183,380.458954 417.602203,388.242737 
	C428.130737,398.204010 438.173340,408.678589 448.434845,418.922485 
	C455.392548,425.868195 462.741730,424.392181 465.908386,415.181030 
	C471.413818,399.166901 472.753174,382.785614 468.598480,366.283630 
	C462.686127,342.800415 449.683197,324.177826 428.409607,312.292389 
	C412.368164,303.330170 395.070007,298.840515 376.390839,301.905518 
	C372.615326,302.525024 369.317749,302.098755 365.955048,298.710999 
	C315.821289,248.203766 265.465576,197.916565 215.058136,147.681976 
	C212.527390,145.159912 211.871048,142.634811 211.952896,139.320480 
	C212.130814,132.115372 212.465439,124.868179 211.921051,117.700081 
	C210.489197,98.846581 202.420197,82.652603 189.526672,69.269844 
	C175.359573,54.565170 157.894043,46.140308 137.213516,43.765877 
	C123.738129,42.218704 111.079117,44.155430 98.575569,48.346722 
	C89.755936,51.303135 88.352127,58.816978 94.956200,65.437752 
	C105.195938,75.703384 115.488930,85.916153 125.691498,96.218521 
	C131.161560,101.742096 133.505386,108.517426 131.389297,116.010437 
	C126.657310,132.766174 108.004852,137.432083 95.671692,125.160400 
	C85.275421,114.815971 74.960724,104.389313 64.531456,94.078407 
	C59.398228,89.003441 52.354691,89.739548 49.772823,95.701012 
	C43.275009,110.704262 41.336498,126.411964 44.319725,142.435257 
	C48.128609,162.893250 57.484100,180.361053 74.032440,193.537399 
	C92.889999,208.552429 114.112831,215.267548 138.245972,212.104599 
	C141.466553,211.682495 144.439713,211.769867 147.286057,214.628952 
	C197.847229,265.415710 248.526138,316.085449 299.299225,366.660370 
	C301.789490,369.140900 302.056519,371.638733 302.023010,374.672852 
	C301.943451,381.873108 301.545013,389.108185 302.078461,396.269348 
	C303.417419,414.242737 310.947662,429.885162 322.768127,443.048615 
	C334.975677,456.643127 350.351562,465.583466 369.460449,469.022308 
M375.793610,130.732742 
	C373.921539,122.505753 371.749298,114.328453 370.373779,106.019272 
	C369.997162,103.744049 371.345032,100.429901 373.032257,98.687256 
	C385.086487,86.236992 397.360809,73.996033 409.738586,61.865513 
	C412.793701,58.871429 414.670898,55.309132 412.717438,51.786556 
	C411.157715,48.973957 407.840057,46.032356 404.797363,45.326546 
	C386.156219,41.002373 367.792114,42.666241 350.496307,50.893543 
	C314.875580,67.837685 295.714935,105.072929 303.333374,144.980743 
	C303.744263,147.132996 302.783478,150.209091 301.347778,151.921921 
	C297.721985,156.247604 293.491547,160.072083 289.446411,164.039322 
	C283.531982,169.839920 277.567688,175.589752 272.524628,180.487228 
	C293.138245,201.147156 313.054047,221.107697 333.420288,241.519669 
	C342.437561,232.364014 352.066193,222.681595 361.566223,212.874603 
	C363.891968,210.473724 366.173401,210.330139 369.494659,210.476730 
	C381.192841,210.993088 393.350250,212.647964 404.577057,210.281952 
	C450.674896,200.566956 479.055237,155.227448 468.684021,109.281464 
	C467.994232,106.225525 465.088043,102.848831 462.285156,101.299370 
	C458.804932,99.375488 455.185547,101.135918 452.167114,104.222397 
	C440.282837,116.374664 428.105835,128.240646 416.217651,140.389160 
	C413.209198,143.463531 410.428345,144.478851 406.083130,143.298904 
	C398.111877,141.134308 389.970032,139.514420 381.821899,138.119781 
	C377.748535,137.422577 375.967957,135.472565 375.793610,130.732742 
M175.999893,277.500214 
	C156.920517,296.579895 137.903564,315.723022 118.662773,334.638519 
	C116.791435,336.478241 113.540237,337.844452 110.925354,337.851410 
	C88.985962,337.909729 71.023834,346.154175 57.303829,363.275574 
	C48.434086,374.344269 43.575676,387.213013 43.131702,401.284821 
	C42.512711,420.903687 49.133820,437.834717 63.298199,451.909882 
	C88.810471,477.261353 130.376114,477.050079 156.197952,452.173401 
	C169.297989,439.552856 176.140610,423.840607 175.903885,405.480347 
	C175.841537,400.643555 177.136932,397.140717 180.661072,393.678375 
	C199.907639,374.769409 218.902283,355.603973 237.973373,336.516541 
	C239.354401,335.134338 240.654816,333.671600 241.232910,333.055756 
	C220.954941,312.789520 201.014877,292.860962 180.380920,272.238953 
	C179.444000,273.388275 177.971176,275.194977 175.999893,277.500214 
z"/>
<path fill="#2B79C2" opacity="1.000000" stroke="none" 
	d="
M369.024719,469.011688 
	C350.351562,465.583466 334.975677,456.643127 322.768127,443.048615 
	C310.947662,429.885162 303.417419,414.242737 302.078461,396.269348 
	C301.545013,389.108185 301.943451,381.873108 302.023010,374.672852 
	C302.056519,371.638733 301.789490,369.140900 299.299225,366.660370 
	C248.526138,316.085449 197.847229,265.415710 147.286057,214.628952 
	C144.439713,211.769867 141.466553,211.682495 138.245972,212.104599 
	C114.112831,215.267548 92.889999,208.552429 74.032440,193.537399 
	C57.484100,180.361053 48.128609,162.893250 44.319725,142.435257 
	C41.336498,126.411964 43.275009,110.704262 49.772823,95.701012 
	C52.354691,89.739548 59.398228,89.003441 64.531456,94.078407 
	C74.960724,104.389313 85.275421,114.815971 95.671692,125.160400 
	C108.004852,137.432083 126.657310,132.766174 131.389297,116.010437 
	C133.505386,108.517426 131.161560,101.742096 125.691498,96.218521 
	C115.488930,85.916153 105.195938,75.703384 94.956200,65.437752 
	C88.352127,58.816978 89.755936,51.303135 98.575569,48.346722 
	C111.079117,44.155430 123.738129,42.218704 137.213516,43.765877 
	C157.894043,46.140308 175.359573,54.565170 189.526672,69.269844 
	C202.420197,82.652603 210.489197,98.846581 211.921051,117.700081 
	C212.465439,124.868179 212.130814,132.115372 211.952896,139.320480 
	C211.871048,142.634811 212.527390,145.159912 215.058136,147.681976 
	C265.465576,197.916565 315.821289,248.203766 365.955048,298.710999 
	C369.317749,302.098755 372.615326,302.525024 376.390839,301.905518 
	C395.070007,298.840515 412.368164,303.330170 428.409607,312.292389 
	C449.683197,324.177826 462.686127,342.800415 468.598480,366.283630 
	C472.753174,382.785614 471.413818,399.166901 465.908386,415.181030 
	C462.741730,424.392181 455.392548,425.868195 448.434845,418.922485 
	C438.173340,408.678589 428.130737,398.204010 417.602203,388.242737 
	C409.375183,380.458954 400.401703,380.123199 391.700806,385.721527 
	C383.029175,391.300995 379.472504,400.992065 383.197968,410.064697 
	C384.467499,413.156433 386.713013,416.032349 389.076050,418.457947 
	C399.076691,428.723511 409.307983,438.763977 419.417847,448.923645 
	C425.618347,455.154663 424.479614,462.118408 416.259888,465.178650 
	C403.872803,469.790405 391.123962,472.626465 377.744019,470.086700 
	C375.013855,469.568451 372.223206,469.368835 369.024719,469.011688 
z"/>
<path fill="#3B4651" opacity="1.000000" stroke="none" 
	d="
M375.859924,131.143005 
	C375.967957,135.472565 377.748535,137.422577 381.821899,138.119781 
	C389.970032,139.514420 398.111877,141.134308 406.083130,143.298904 
	C410.428345,144.478851 413.209198,143.463531 416.217651,140.389160 
	C428.105835,128.240646 440.282837,116.374664 452.167114,104.222397 
	C455.185547,101.135918 458.804932,99.375488 462.285156,101.299370 
	C465.088043,102.848831 467.994232,106.225525 468.684021,109.281464 
	C479.055237,155.227448 450.674896,200.566956 404.577057,210.281952 
	C393.350250,212.647964 381.192841,210.993088 369.494659,210.476730 
	C366.173401,210.330139 363.891968,210.473724 361.566223,212.874603 
	C352.066193,222.681595 342.437561,232.364014 333.420288,241.519669 
	C313.054047,221.107697 293.138245,201.147156 272.524628,180.487228 
	C277.567688,175.589752 283.531982,169.839920 289.446411,164.039322 
	C293.491547,160.072083 297.721985,156.247604 301.347778,151.921921 
	C302.783478,150.209091 303.744263,147.132996 303.333374,144.980743 
	C295.714935,105.072929 314.875580,67.837685 350.496307,50.893543 
	C367.792114,42.666241 386.156219,41.002373 404.797363,45.326546 
	C407.840057,46.032356 411.157715,48.973957 412.717438,51.786556 
	C414.670898,55.309132 412.793701,58.871429 409.738586,61.865513 
	C397.360809,73.996033 385.086487,86.236992 373.032257,98.687256 
	C371.345032,100.429901 369.997162,103.744049 370.373779,106.019272 
	C371.749298,114.328453 373.921539,122.505753 375.859924,131.143005 
z"/>
<path fill="#3B4651" opacity="1.000000" stroke="none" 
	d="
M176.249115,277.250946 
	C177.971176,275.194977 179.444000,273.388275 180.380920,272.238953 
	C201.014877,292.860962 220.954941,312.789520 241.232910,333.055756 
	C240.654816,333.671600 239.354401,335.134338 237.973373,336.516541 
	C218.902283,355.603973 199.907639,374.769409 180.661072,393.678375 
	C177.136932,397.140717 175.841537,400.643555 175.903885,405.480347 
	C176.140610,423.840607 169.297989,439.552856 156.197952,452.173401 
	C130.376114,477.050079 88.810471,477.261353 63.298199,451.909882 
	C49.133820,437.834717 42.512711,420.903687 43.131702,401.284821 
	C43.575676,387.213013 48.434086,374.344269 57.303829,363.275574 
	C71.023834,346.154175 88.985962,337.909729 110.925354,337.851410 
	C113.540237,337.844452 116.791435,336.478241 118.662773,334.638519 
	C137.903564,315.723022 156.920517,296.579895 176.249115,277.250946 
M128.613083,378.838470 
	C114.027481,368.110077 89.711143,371.342316 80.778671,391.501434 
	C75.538460,403.327759 77.191803,414.422760 84.973206,424.192108 
	C92.812164,434.033722 103.600204,438.056427 116.062202,435.377502 
	C129.038269,432.588074 137.393204,424.281250 140.584869,411.439117 
	C143.825119,398.401520 139.141586,387.767944 128.613083,378.838470 
z"/>
<path fill="#000000" opacity="1.000000" stroke="none" 
	d="
M128.947220,378.982117 
	C139.141586,387.767944 143.825119,398.401520 140.584869,411.439117 
	C137.393204,424.281250 129.038269,432.588074 116.062202,435.377502 
	C103.600204,438.056427 92.812164,434.033722 84.973206,424.192108 
	C77.191803,414.422760 75.538460,403.327759 80.778671,391.501434 
	C89.711143,371.342316 114.027481,368.110077 128.947220,378.982117 
M100.848618,391.090607 
	C99.843246,391.953888 98.749634,392.734192 97.846939,393.694061 
	C92.282043,399.611176 92.802444,411.279480 98.811584,416.229309 
	C105.836647,422.015930 116.876099,421.213562 122.051979,414.315247 
	C126.721962,408.091187 126.653954,400.845062 122.861176,395.426697 
	C117.715919,388.076233 108.428940,387.299255 100.848618,391.090607 
z"/>
<path fill="#3B4651" opacity="1.000000" stroke="none" 
	d="
M101.208153,390.942352 
	C108.428940,387.299255 117.715919,388.076233 122.861176,395.426697 
	C126.653954,400.845062 126.721962,408.091187 122.051979,414.315247 
	C116.876099,421.213562 105.836647,422.015930 98.811584,416.229309 
	C92.802444,411.279480 92.282043,399.611176 97.846939,393.694061 
	C98.749634,392.734192 99.843246,391.953888 101.208153,390.942352 
z"/>
</svg>